<?xml version="1.0" standalone="no"?>
<!DOCTYPE svg PUBLIC "-//W3C//DTD SVG 20010904//EN"
 "http://www.w3.org/TR/2001/REC-SVG-20010904/DTD/svg10.dtd">
<svg version="1.0" xmlns="http://www.w3.org/2000/svg"
 width="700.000000pt" height="700.000000pt" viewBox="0 0 700.000000 700.000000"
 preserveAspectRatio="xMidYMid meet">
<metadata>
Created by potrace 1.14, written by Peter Selinger 2001-2017
</metadata>
<g transform="translate(0.000000,700.000000) scale(0.100000,-0.100000)"
fill="#000000" stroke="none">
<path d="M3355 6354 c-217 -21 -279 -29 -405 -54 -863 -170 -1604 -736 -2000
-1529 -140 -280 -224 -551 -277 -891 -25 -163 -25 -604 0 -775 29 -194 34
-205 92 -205 48 0 50 18 24 198 -20 140 -24 205 -23 402 0 252 13 376 60 589
223 1003 1003 1813 1989 2066 767 196 1563 65 2207 -365 180 -120 280 -201
429 -350 426 -425 690 -949 784 -1560 10 -62 19 -203 22 -343 l6 -238 25 -17
c22 -14 27 -14 51 -1 24 14 26 21 33 109 8 113 -6 385 -27 522 -74 497 -287
985 -601 1378 -96 120 -320 342 -444 440 -418 331 -906 538 -1429 604 -122 16
-437 28 -516 20z"/>
<path d="M2564 5770 c-83 -33 -158 -328 -209 -812 -19 -182 -19 -269 -1 -311
17 -42 63 -80 120 -102 43 -17 45 -18 31 -38 -22 -31 -18 -53 12 -76 l26 -21
-23 -25 c-17 -18 -21 -32 -18 -60 4 -35 3 -36 -81 -87 -321 -192 -517 -355
-665 -553 -56 -74 -161 -244 -197 -318 l-21 -44 -135 33 c-174 43 -324 66
-340 52 -17 -13 -17 -45 0 -55 6 -4 59 -16 117 -25 58 -10 154 -30 213 -44 90
-22 108 -29 104 -43 -3 -9 -27 -70 -55 -136 -27 -66 -72 -191 -101 -278 -29
-87 -58 -160 -65 -162 -6 -1 -63 -15 -126 -30 -157 -37 -190 -51 -190 -81 0
-14 7 -27 15 -30 8 -4 57 5 108 20 127 35 182 43 175 25 -3 -8 -26 -86 -52
-174 -26 -88 -53 -165 -59 -170 -7 -6 -59 -26 -117 -44 -115 -37 -130 -45
-130 -72 0 -36 29 -38 122 -7 49 17 91 28 94 25 3 -2 0 -26 -7 -51 -14 -57 -7
-161 14 -202 38 -73 114 -121 300 -189 223 -80 597 -163 1082 -239 402 -63
791 -90 1300 -90 430 -1 551 8 853 60 432 74 961 260 1098 386 108 99 130 261
63 457 -11 30 -19 58 -19 64 0 10 73 -30 134 -75 46 -33 71 -35 86 -8 8 16 6
24 -10 40 -30 30 -126 90 -198 124 l-61 29 -42 103 c-22 57 -39 107 -37 113 6
17 152 -29 255 -80 57 -29 109 -49 118 -46 8 4 15 18 15 31 0 20 -12 32 -58
59 -78 46 -174 83 -263 103 -41 9 -81 19 -89 24 -13 6 -65 159 -57 167 2 1 48
8 104 14 96 10 129 8 325 -17 39 -5 48 -3 57 13 18 35 -6 51 -103 68 -100 17
-239 19 -336 5 -35 -5 -66 -8 -67 -6 -2 1 -21 70 -44 152 -92 336 -203 540
-403 740 -143 142 -383 303 -569 381 -62 25 -68 30 -64 53 3 14 2 34 -3 45 -5
13 -1 24 12 35 11 8 23 31 26 49 6 29 14 36 58 52 80 30 104 58 104 120 0 103
-106 566 -185 804 -45 138 -101 259 -131 287 -37 33 -68 32 -108 -3 -46 -40
-83 -113 -136 -264 -74 -217 -160 -611 -160 -737 0 -59 34 -102 115 -144 40
-21 53 -33 49 -44 -4 -8 -9 -29 -12 -47 -2 -20 -11 -35 -23 -38 -10 -4 -63 3
-116 14 -156 32 -267 43 -438 42 -177 0 -276 -14 -453 -63 l-113 -31 -20 22
c-11 11 -24 21 -29 21 -5 0 -7 14 -3 30 4 24 0 36 -17 55 -17 18 -21 31 -16
50 4 14 2 35 -5 46 -9 18 -5 25 30 56 54 46 71 80 71 145 0 172 -187 729 -301
894 -22 33 -82 77 -101 73 -1 0 -13 -4 -24 -9z m86 -147 c75 -125 191 -455
246 -703 32 -145 30 -151 -54 -214 -60 -45 -72 -74 -47 -112 12 -19 14 -29 6
-37 -19 -19 -12 -55 14 -74 23 -17 24 -21 13 -50 -10 -28 -10 -35 7 -52 10
-12 26 -21 37 -21 10 0 18 -7 18 -15 0 -9 12 -21 26 -27 30 -14 86 -5 262 41
276 73 565 63 928 -29 234 -60 450 -147 659 -267 298 -172 521 -437 635 -758
31 -88 102 -337 97 -340 -1 -1 -33 -12 -72 -24 -90 -29 -117 -46 -113 -73 6
-42 31 -44 119 -10 45 18 84 31 86 28 2 -2 10 -26 17 -52 7 -27 16 -60 21 -73
7 -23 6 -23 -38 -17 -34 5 -48 3 -61 -9 -19 -20 -20 -26 -3 -48 8 -11 30 -17
71 -19 l59 -3 17 -50 c10 -27 27 -74 39 -104 20 -49 20 -53 4 -46 -39 15 -156
35 -174 30 -23 -8 -34 -42 -19 -60 7 -8 28 -17 49 -20 97 -16 187 -38 198 -49
26 -25 76 -201 81 -282 9 -166 -34 -231 -205 -311 -368 -172 -763 -276 -1253
-330 -115 -13 -242 -17 -495 -17 -654 0 -1144 50 -1845 189 -304 61 -594 149
-715 218 -84 47 -109 126 -78 248 17 72 19 74 56 86 54 18 389 79 532 97 156
20 336 35 509 44 117 6 141 10 150 24 20 33 -4 53 -70 56 -202 11 -770 -56
-1031 -121 -51 -13 -93 -21 -93 -18 0 3 23 83 52 178 l52 172 66 8 c36 4 182
7 325 7 247 0 468 -16 614 -44 59 -11 78 -6 87 23 9 30 -23 53 -88 61 -306 42
-668 57 -854 36 -63 -7 -117 -10 -120 -8 -10 10 179 525 201 546 17 17 547
-186 848 -325 218 -100 238 -105 245 -55 4 27 -13 38 -219 133 -263 122 -627
263 -797 308 l-43 12 42 80 c58 111 162 266 234 347 140 157 267 255 586 449
151 93 172 116 130 145 -20 14 -20 15 9 37 37 27 39 64 6 94 l-24 21 21 29
c20 26 20 30 6 55 -11 20 -29 31 -75 43 -130 35 -140 54 -124 247 34 434 123
851 178 840 8 -2 31 -31 52 -65z m1703 -27 c60 -126 142 -396 201 -664 47
-212 68 -334 58 -344 -5 -5 -44 -21 -88 -36 l-79 -28 2 -37 c2 -28 -4 -43 -23
-62 -26 -26 -28 -44 -9 -89 7 -16 5 -18 -11 -12 -10 4 -60 21 -111 38 l-92 30
3 34 c2 18 8 39 13 46 18 24 22 48 12 71 -12 26 -24 35 -108 77 -84 43 -84 43
-71 147 38 307 172 771 252 871 17 20 25 14 51 -42z"/>
<path d="M4801 3620 c-48 -21 -82 -53 -109 -103 -25 -48 -27 -61 -27 -172 0
-98 3 -126 19 -155 25 -48 76 -100 98 -100 27 0 22 33 -8 61 -31 28 -59 88
-69 144 -8 52 9 157 33 204 73 140 270 90 329 -84 19 -55 24 -183 9 -252 -8
-40 -7 -43 12 -43 30 0 47 59 46 155 -2 201 -102 340 -251 351 -32 2 -69 -1
-82 -6z"/>
<path d="M2947 3610 c-86 -22 -153 -80 -196 -170 -23 -49 -26 -67 -25 -155 1
-77 6 -113 23 -156 23 -60 84 -139 107 -139 29 0 27 31 -4 63 -50 52 -75 120
-80 220 -4 83 -3 91 27 152 61 124 167 169 301 129 39 -12 66 -29 105 -68 68
-68 95 -137 95 -245 0 -68 -4 -87 -29 -134 -26 -50 -28 -57 -14 -69 13 -10 19
-8 39 17 39 48 57 126 52 219 -8 141 -76 249 -191 305 -69 34 -150 46 -210 31z"/>
<path d="M4092 3489 c-68 -8 -89 -15 -219 -61 -67 -24 -83 -34 -83 -50 0 -26
19 -23 160 28 95 34 115 37 210 38 91 1 113 -2 166 -25 33 -14 66 -23 72 -21
24 8 11 32 -26 51 -75 38 -179 53 -280 40z"/>
<path d="M4800 3393 c-55 -70 34 -201 92 -135 37 41 29 116 -15 147 -31 22
-53 18 -77 -12z"/>
<path d="M4140 3394 c-130 -25 -317 -119 -356 -180 -21 -31 -12 -67 20 -82 43
-19 194 -25 382 -13 196 11 269 23 325 52 84 42 60 130 -46 175 -90 38 -252
62 -325 48z"/>
<path d="M2917 3379 c-28 -16 -49 -74 -41 -115 8 -43 54 -94 86 -94 83 0 111
128 43 196 -26 26 -58 30 -88 13z"/>
<path d="M4341 2518 c-45 -15 -114 -81 -109 -105 6 -30 38 -27 72 6 46 44 86
56 127 37 19 -9 41 -21 50 -27 22 -16 49 -4 49 21 0 26 -64 68 -115 74 -22 3
-55 0 -74 -6z"/>
<path d="M5102 1250 c-240 -169 -545 -316 -818 -395 -560 -163 -1169 -143
-1714 55 -168 61 -416 186 -565 284 -131 87 -161 98 -189 70 -32 -32 -20 -61
46 -109 154 -114 392 -242 608 -328 207 -83 472 -149 715 -179 139 -16 517
-17 655 0 468 57 940 236 1306 495 99 70 120 102 89 137 -28 31 -55 25 -133
-30z"/>
</g>
</svg>
